<svg xmlns="http://www.w3.org/2000/svg" viewBox="0 0 156 180.71"><defs><style>.cls-1{fill:#262626;}.cls-2,.cls-3{fill:#f2f2f3;}.cls-3{font-size:21px;font-family:Montserrat-ExtraBold, Montserrat;font-weight:800;}</style></defs><g id="Layer_1" data-name="Layer 1"><ellipse class="cls-1" cx="77.9" cy="78.56" rx="73.43" ry="77.4"/><path class="cls-2" d="M136.83,36.24h156M239.07,143.15l-.49,0c-.32,1.1-.66,2.2-1,3.31a54.39,54.39,0,0,1-7.27,16.3c-.44.66-.94,1.95-.64,2.3.71.84,1.88,1.83,2.86,1.83,12.79,0,25.58-.18,38.36-.39a3.75,3.75,0,0,0,2.57-1.11c10.62-13,17.95-27.26,17.83-44.54,0-3.91-.18-7.82,0-11.71.5-9-2-17.32-5.52-25.31C269.15,49.31,238.06,33,202.66,38.33c-34.61,5.18-62.36,34.4-65.11,69.23-2.22,28,8,51,29.81,68.73,1.18,1,2.49,1.77,3.94,2.79a14.24,14.24,0,0,0,.46-1.55c1.16-8.38,2.38-16.76,3.42-25.16.81-6.51,1.23-13.18,4.25-19.1,2.79-5.46,6.27-10.57,9.42-15.8l-1-1.38c1.64-.89,3.47-1.41,4.56-2.61s2.5-2.91.72-4.11c-.14-1.27-.25-2.13-.32-3a3.74,3.74,0,0,1,.1-1.11c.62-2.22,1.17-4.46,1.91-6.64a51.93,51.93,0,0,1,2.86-7.36c1.18-2.29,1.23-2.76-1.12-4-.38-.2-.75-.43-1.26-.71L198.09,85l-1.44-2.28,2.73-.65c-2.83-4.6-2.77-6.63.21-8.75,0,.46.07.86.09,1.25.2,3.66,4.75,6.42,8,4.72,8-4.23,16-4.25,24.05,0,2.07,1.1,6.74-.24,7.72-2.31a18.12,18.12,0,0,0,.86-3.88c3.31,3.1,2.12,6.05-.11,9l2.64.56-1.35,2.4,2.75,1.55c-3.88,1.75-4,2.07-2,5.47a20.11,20.11,0,0,1,2.46,10.53c0,2.2.3,4.41.48,6.79h-2.45l1.5,3.89-2.44.14c0,3.82-.27,7.55.06,11.23.61,6.81,1.08,13.58-.36,20.33a21.48,21.48,0,0,1-1,2.72,7.45,7.45,0,0,1-.75-2.35C239.58,144.64,239.3,143.9,239.07,143.15Zm-9.94,47.91A69.88,69.88,0,0,0,264.06,174a10.81,10.81,0,0,0-3.9,1.07,4.31,4.31,0,0,1-1.87.47c-6.24-.57-11.52,1.9-16.53,5.16-1.6,1-2.68.85-3.8-.62l4.45-5.25c-2.76,0-5,0-7.21,0-.8,0-1.88,0-2.33.51-2,2.14-4.07,1.3-6.39.66s-4.74-.6-7.24-.88c-.2,4.71,2.12,7.5,4.63,10.2C225.53,187.12,227.17,188.93,229.13,191.06Z" transform="translate(-136.83 -36.24)"/><ellipse class="cls-2" cx="277.66" cy="124.65" rx="30.25" ry="13.32" transform="translate(-41.5 332.11) rotate(-77.37)"/><text class="cls-3" transform="translate(21.41 175.09)">Night Owl</text></g></svg>