<svg id="Layer_1" data-name="Layer 1" xmlns="http://www.w3.org/2000/svg" viewBox="0 0 101.4 93.97"><defs><style>.cls-1,.cls-2{fill:#262626;}.cls-2{font-size:60px;font-family:Nasa;}</style></defs><path class="cls-1" d="M170.8,147.85a40.83,40.83,0,0,1,31.9-15.2c22.33,0,40.5,17.71,40.5,39.48a38.44,38.44,0,0,1-4.27,17.63h8.26a45.91,45.91,0,0,0,3.51-17.63c0-25.9-21.53-47-48-47a48.26,48.26,0,0,0-41.08,22.7Z" transform="translate(-149.3 -125.15)"/><path class="cls-1" d="M235.13,195.76a41.09,41.09,0,0,1-64.86,0h-9a48.48,48.48,0,0,0,82.93,0Z" transform="translate(-149.3 -125.15)"/><text class="cls-2" transform="translate(0 64.81)">CM</text><rect class="cls-1" x="86.58" y="57.81" width="8.15" height="6"/></svg>