<svg id="Icons" height="512" viewBox="0 0 74 74" width="512" xmlns="http://www.w3.org/2000/svg"><path d="m19.353 55.01a1 1 0 0 1 -1-1v-18.236l-14.865-8.866a1 1 0 0 1 .436-1.856l66-5.059a1 1 0 0 1 .914 1.543l-20.9 32.02a1 1 0 0 1 -1.364.3l-19.474-12.066-8.927 12.792a1 1 0 0 1 -.82.428zm9.472-15.569a.994.994 0 0 1 .526.15l19.444 12.054 19.259-29.5-60.834 4.66 12.646 7.542a1 1 0 0 1 .488.859v15.624l7.646-10.961a1 1 0 0 1 .825-.428z"/><path d="m28.824 41.441a1 1 0 0 1 -.428-1.9l30.416-14.372-39.189 11a1 1 0 1 1 -.54-1.926l50.647-14.216a1 1 0 0 1 .7 1.867l-41.179 19.451a1 1 0 0 1 -.427.096z"/><path d="m19.354 55.01a1 1 0 0 1 -.4-1.917l18.437-8.01a1 1 0 1 1 .8 1.834l-18.437 8.01a.994.994 0 0 1 -.4.083z"/></svg>