<svg id="Capa_1" data-name="Capa 1" xmlns="http://www.w3.org/2000/svg" viewBox="0 0 284 271"><path d="M350.5,98H127.36c-16.8,0-30.43,13-30.43,29V281.9c0,16,13.63,29,30.43,29h36l-5.52,47.33a9.8,9.8,0,0,0,9,10.68,10.46,10.46,0,0,0,7.9-2.43l64.73-55.58H350.5c16.81,0,30.43-13,30.43-29V127C380.93,111,367.31,98,350.5,98Zm10.15,183.9a9.92,9.92,0,0,1-10.15,9.67H235.56a10.42,10.42,0,0,0-6.79,2.49L181,335.13l3.82-32.8a9.8,9.8,0,0,0-8.95-10.7,10.69,10.69,0,0,0-1.13-.06H127.36a9.91,9.91,0,0,1-10.14-9.67V127a9.92,9.92,0,0,1,10.14-9.68H350.5A9.92,9.92,0,0,1,360.65,127V281.9Z" transform="translate(-96.93 -98)"/><circle cx="77.27" cy="117.14" r="23.79"/><circle cx="142" cy="117.14" r="23.79"/><circle cx="206.92" cy="117.14" r="23.79"/></svg>