<svg id="Layer_1" data-name="Layer 1" xmlns="http://www.w3.org/2000/svg" viewBox="0 0 32.58 31.77"><defs><style>.cls-1{fill:#191717;fill-rule:evenodd;}</style></defs><path class="cls-1" d="M199.12,184.55a16.29,16.29,0,0,0-4.36,31.73c.82.15,1.12-.35,1.12-.78s0-1.42,0-2.77c-4.53,1-5.48-2.19-5.48-2.19a4.3,4.3,0,0,0-1.81-2.38c-1.48-1,.11-1,.11-1a3.41,3.41,0,0,1,2.5,1.68,3.46,3.46,0,0,0,4.74,1.35,3.49,3.49,0,0,1,1-2.18c-3.62-.41-7.42-1.81-7.42-8.05a6.3,6.3,0,0,1,1.68-4.37,5.82,5.82,0,0,1,.16-4.31s1.36-.44,4.48,1.67a15.37,15.37,0,0,1,8.15,0c3.11-2.11,4.48-1.67,4.48-1.67a5.82,5.82,0,0,1,.16,4.31A6.3,6.3,0,0,1,210.3,200c0,6.26-3.8,7.64-7.43,8a3.91,3.91,0,0,1,1.1,3c0,2.18,0,3.93,0,4.47s.3.94,1.12.78a16.29,16.29,0,0,0-5.95-31.73Z" transform="translate(-183.62 -184.53)"/></svg>