<svg id="Layer_2" data-name="Layer 2" xmlns="http://www.w3.org/2000/svg" viewBox="0 0 100.02 28.24"><defs><style>.cls-1{fill:#4156a1;}.cls-2{isolation:isolate;}.cls-3{fill:#f1f2f2;}</style></defs><rect class="cls-1" width="100.02" height="28.24"/><g class="cls-2"><path class="cls-3" d="M12.8,21.13H9.89a.7.7,0,0,1-.5-.15.7.7,0,0,1-.15-.5V11.64H6.59a.67.67,0,0,1-.49-.15A.64.64,0,0,1,5.94,11V8.82a.65.65,0,0,1,.16-.5.67.67,0,0,1,.49-.15H16.1a.68.68,0,0,1,.49.15.7.7,0,0,1,.15.5V11a.55.55,0,0,1-.64.64H13.45v8.84a.7.7,0,0,1-.15.5A.71.71,0,0,1,12.8,21.13Z"/><path class="cls-3" d="M27.8,8.17h2.68a.67.67,0,0,1,.49.15.7.7,0,0,1,.16.5v7c0,.39,0,.74-.05,1.07A4.7,4.7,0,0,1,30.8,18l-.9,2.45a1.38,1.38,0,0,1-.26.46.58.58,0,0,1-.46.19H26.79a1,1,0,0,1-.52-.13.6.6,0,0,1-.31-.41l-.83-2.93a.53.53,0,0,0-.13-.25.33.33,0,0,0-.19-.06h-.16a.29.29,0,0,0-.19.06.53.53,0,0,0-.14.25l-.84,2.93a.71.71,0,0,1-.27.41,1,1,0,0,1-.49.13H20.34a.72.72,0,0,1-.49-.18,1,1,0,0,1-.3-.47L18.65,18a5.34,5.34,0,0,1-.28-1.16c0-.33,0-.69,0-1.07V8.82a.7.7,0,0,1,.15-.5.7.7,0,0,1,.5-.15h2.77a.67.67,0,0,1,.49.15.7.7,0,0,1,.16.5v6.62l1-2.27a1,1,0,0,1,.38-.43,1.23,1.23,0,0,1,.57-.12h.76a1.28,1.28,0,0,1,.58.12.93.93,0,0,1,.37.43l1,2.27V8.82a.7.7,0,0,1,.15-.5A.7.7,0,0,1,27.8,8.17Z"/><path class="cls-3" d="M42.45,21.13H34.1a.55.55,0,0,1-.65-.65V8.82a.7.7,0,0,1,.15-.5.7.7,0,0,1,.5-.15h8.35a.67.67,0,0,1,.49.15.7.7,0,0,1,.16.5v2.1a.7.7,0,0,1-.16.5.67.67,0,0,1-.49.15h-5V13H41a.67.67,0,0,1,.49.15.65.65,0,0,1,.16.5v1.92a.56.56,0,0,1-.65.65H37.48v1.55h5a.67.67,0,0,1,.49.15.7.7,0,0,1,.16.5v2.1a.7.7,0,0,1-.16.5A.67.67,0,0,1,42.45,21.13Z"/><path class="cls-3" d="M54.22,21.13H45.87a.55.55,0,0,1-.65-.65V8.82a.7.7,0,0,1,.15-.5.7.7,0,0,1,.5-.15h8.35a.67.67,0,0,1,.49.15.65.65,0,0,1,.16.5v2.1a.65.65,0,0,1-.16.5.67.67,0,0,1-.49.15h-5V13h3.51a.71.71,0,0,1,.5.15.7.7,0,0,1,.15.5v1.92a.55.55,0,0,1-.65.65H49.25v1.55h5a.67.67,0,0,1,.49.15.65.65,0,0,1,.16.5v2.1a.65.65,0,0,1-.16.5A.67.67,0,0,1,54.22,21.13Z"/><path class="cls-3" d="M63.11,21.13H60.2a.55.55,0,0,1-.65-.65V11.64H56.9a.67.67,0,0,1-.49-.15.64.64,0,0,1-.16-.49V8.82a.65.65,0,0,1,.16-.5.67.67,0,0,1,.49-.15h9.51a.68.68,0,0,1,.49.15.7.7,0,0,1,.15.5V11a.55.55,0,0,1-.64.64H63.76v8.84a.7.7,0,0,1-.15.5A.71.71,0,0,1,63.11,21.13Z"/><path class="cls-3" d="M77.8,21.13H69.45a.55.55,0,0,1-.65-.65V8.82a.7.7,0,0,1,.15-.5.7.7,0,0,1,.5-.15H77.8a.67.67,0,0,1,.49.15.65.65,0,0,1,.16.5v2.1a.65.65,0,0,1-.16.5.67.67,0,0,1-.49.15h-5V13h3.51a.71.71,0,0,1,.5.15.7.7,0,0,1,.15.5v1.92a.55.55,0,0,1-.65.65H72.83v1.55h5a.67.67,0,0,1,.49.15.65.65,0,0,1,.16.5v2.1a.65.65,0,0,1-.16.5A.67.67,0,0,1,77.8,21.13Z"/><path class="cls-3" d="M84,21.13H81.22a.71.71,0,0,1-.5-.15.7.7,0,0,1-.15-.5V8.82a.7.7,0,0,1,.15-.5.71.71,0,0,1,.5-.15h6A3.66,3.66,0,0,1,90,9a3.08,3.08,0,0,1,.77,2.17V12a3.27,3.27,0,0,1-.23,1.29,1.44,1.44,0,0,1-.78.77,2.37,2.37,0,0,1,1.58.79,2.65,2.65,0,0,1,.6,1.82v3.81a.7.7,0,0,1-.15.5.71.71,0,0,1-.5.15H88.49A.67.67,0,0,1,88,21a.65.65,0,0,1-.16-.5V17.73a1,1,0,0,0-.15-.59.67.67,0,0,0-.53-.19H84.64v3.53a.7.7,0,0,1-.15.5A.71.71,0,0,1,84,21.13Zm.65-9.72v2.3H86a.72.72,0,0,0,.63-.24,1,1,0,0,0,.16-.6v-.61a1.07,1.07,0,0,0-.16-.61.72.72,0,0,0-.63-.24Z"/></g></svg>