<svg id="Layer_1" data-name="Layer 1" xmlns="http://www.w3.org/2000/svg" viewBox="0 0 102.19 102.3"><defs><style>.cls-1{fill:#fff;}</style></defs><path class="cls-1" d="M218.21,123.26c0-7.88,0-15.77,0-23.65,0-2.08-.62-3.6-2.85-3.86a42.28,42.28,0,0,0-4.78-.08c-9.71,0-19.42,0-29.14,0-2.64,0-5.32-.74-7.9-.43-4.73.55-6.22.68-6.17,6.13.13,14.77,0,29.54.05,44.32,0,3.59,1.37,5,5,5q20.67,0,41.34,0c3,0,4.45-1.43,4.46-4.44Q218.23,134.72,218.21,123.26Zm12.91,70.33a7.31,7.31,0,0,1,.23-1.54c4.2-.35,8.41-.64,12.55-.92V170.82H214.39c0,6.3.06,12.35,0,18.4,0,1.8.59,2.29,2.28,2.25,3.47-.1,6.94,0,10.37,0,.31,2.51-.25,3-2.7,2.81-3.41-.31-3.44-.28-2.8,3.13h16.29c.6-2.42,0-3.58-2.59-3.34A21,21,0,0,1,231.12,193.59Zm-66.6,3.84-.21-3.41a6.53,6.53,0,0,1-2.27.2c-1.26-.41-3.51-1.14-3.48-1.59.16-2.16,2.13-1.08,3.3-1.14,3.09-.17,6.2-.06,9.28-.06v-20.7H141.71v20.68h12.42c.44,2.6-.47,3-5.59,2.72v3.3Zm42.89-26.67H178.48v20.68c3.55,0,6.94-.06,10.33,0a7.45,7.45,0,0,1,2.3.94c-.69.56-1.3,1.41-2.08,1.61a28.7,28.7,0,0,1-4.48.44v2.9h16.58v-3l-6.54-.74v-1.3c4-2,8.49-.1,12.83-1.15ZM231,157.67H199c-4.12,0-4.12,0-4.88-4h-2.75c-.44,4-.44,4-4.27,4H154.63v9.75h3.83v-5.53c.34-.15.48-.28.63-.28,10.11,0,20.23-.1,30.35,0,.59,0,1.54,1.06,1.68,1.77a19.77,19.77,0,0,1,.08,4.07h3.41c-.05-.9-.11-1.55-.12-2.21-.08-3.68-.06-3.71,3.67-3.71h29.2v6H231Z" transform="translate(-141.71 -95.13)"/><path d="M218.21,123.26q0,11.44,0,22.9c0,3-1.45,4.44-4.46,4.44q-20.67,0-41.34,0c-3.6,0-5-1.36-5-5,0-14.78.08-29.55-.05-44.32,0-5.45,1.44-5.58,6.17-6.13,2.58-.31,5.26.41,7.9.43,9.72.06,19.43,0,29.14,0a42.28,42.28,0,0,1,4.78.08c2.23.26,2.86,1.78,2.85,3.86C218.18,107.49,218.21,115.38,218.21,123.26Zm-46.94,6.34h43.11c0-3.82-.1-7.46,0-11.09.08-2.05-.8-2.55-2.66-2.52-5.4.09-10.79,0-16.19,0-7.54,0-15.08,0-22.62.18a2.27,2.27,0,0,0-1.59,1.53C171.21,121.62,171.27,125.51,171.27,129.6ZM192.8,98.94c-6.31,0-12.62.08-18.92,0-2.13,0-2.74.7-2.65,2.72.14,3,.12,6,0,9-.06,1.64.58,2.18,2.17,2.18q19.42-.06,38.84,0c1.67,0,2.17-.67,2.13-2.22-.07-3.07-.1-6.15,0-9.21.07-1.85-.58-2.45-2.44-2.42C205.58,99,199.19,99,192.8,98.94Zm21.39,47.69V133.78H171.42v12.85Z" transform="translate(-141.71 -95.13)"/><path d="M231.12,193.59a21,21,0,0,0,4.08.45c2.6-.24,3.19.92,2.59,3.34H221.5c-.64-3.41-.61-3.44,2.8-3.13,2.45.23,3-.3,2.7-2.81-3.43,0-6.9-.07-10.37,0-1.69,0-2.32-.45-2.28-2.25.1-6.05,0-12.1,0-18.4H243.9v20.31c-4.14.28-8.35.57-12.55.92A7.31,7.31,0,0,0,231.12,193.59Zm9-19.17c-6.88,0-13.5,0-20.11,0-1.43,0-1.85.66-1.79,2,.07,1.81,0,3.64,0,5.46,0,5.71,0,5.73,5.69,5.75,5.36,0,10.71,0,16.2,0Z" transform="translate(-141.71 -95.13)"/><path d="M164.52,197.43h-16v-3.3c5.12.3,6-.12,5.59-2.72H141.71V170.73h29.43v20.7c-3.08,0-6.19-.11-9.28.06-1.17.06-3.14-1-3.3,1.14,0,.45,2.22,1.18,3.48,1.59a6.53,6.53,0,0,0,2.27-.2Zm2.77-22.8H145.65v12.78h21.64Z" transform="translate(-141.71 -95.13)"/><path d="M207.41,170.76v20.39c-4.34,1-8.87-.84-12.83,1.15v1.3l6.54.74v3H184.55v-2.9A28.7,28.7,0,0,0,189,194c.78-.2,1.39-1.05,2.08-1.61a7.45,7.45,0,0,0-2.3-.94c-3.39-.1-6.78,0-10.33,0V170.76Zm-25.13,16.83c6.9,0,13.52,0,20.13-.08a2.47,2.47,0,0,0,1.66-1.75c.17-3.22.15-6.46,0-9.68,0-.57-.87-1.57-1.35-1.58-6.77-.1-13.54-.07-20.46-.07Z" transform="translate(-141.71 -95.13)"/><path d="M231,157.67v9.8h-3.67v-6h-29.2c-3.73,0-3.75,0-3.67,3.71,0,.66.07,1.31.12,2.21H191.2a19.77,19.77,0,0,0-.08-4.07c-.14-.71-1.09-1.77-1.68-1.77-10.12-.08-20.24,0-30.35,0-.15,0-.29.13-.63.28v5.53h-3.83v-9.75h32.51c3.83,0,3.83,0,4.27-4h2.75c.76,4,.76,4,4.88,4h32Z" transform="translate(-141.71 -95.13)"/><path class="cls-1" d="M171.27,129.6c0-4.09-.06-8,.08-11.86a2.27,2.27,0,0,1,1.59-1.53c7.54-.14,15.08-.15,22.62-.18,5.4,0,10.79,0,16.19,0,1.86,0,2.74.47,2.66,2.52-.13,3.63,0,7.27,0,11.09Zm6.24-2.74-.26-3.62c-3.88.08-3.88.08-3.5,3.43Z" transform="translate(-141.71 -95.13)"/><path class="cls-1" d="M192.8,99c6.39,0,12.78.06,19.17,0,1.86,0,2.51.57,2.44,2.42-.11,3.06-.08,6.14,0,9.21,0,1.55-.46,2.23-2.13,2.22q-19.43-.06-38.84,0c-1.59,0-2.23-.54-2.17-2.18.09-3,.11-6,0-9-.09-2,.52-2.76,2.65-2.72C180.18,99,186.49,98.94,192.8,99Zm-15.28,10.7-.27-3.54c-3.86-.24-4-.09-3.44,3.54Z" transform="translate(-141.71 -95.13)"/><path class="cls-1" d="M214.19,146.63H171.42V133.78h42.77ZM173,140.83c.66,1.48.89,2.64,1.58,3.35a2.53,2.53,0,0,0,2.24.13,14.92,14.92,0,0,0,.83-3.48Z" transform="translate(-141.71 -95.13)"/><path class="cls-1" d="M240.1,174.42V187.6c-5.49,0-10.84,0-16.2,0-5.69,0-5.69,0-5.69-5.75,0-1.82.06-3.65,0-5.46-.06-1.33.36-2,1.79-2C226.6,174.43,233.22,174.42,240.1,174.42Z" transform="translate(-141.71 -95.13)"/><path class="cls-1" d="M167.29,174.63v12.78H145.65V174.63Z" transform="translate(-141.71 -95.13)"/><path class="cls-1" d="M182.28,187.59V174.43c6.92,0,13.69,0,20.46.07.48,0,1.33,1,1.35,1.58.13,3.22.15,6.46,0,9.68a2.47,2.47,0,0,1-1.66,1.75C195.8,187.64,189.18,187.59,182.28,187.59Z" transform="translate(-141.71 -95.13)"/><path d="M177.51,126.86l-3.76-.19c-.38-3.35-.38-3.35,3.5-3.43Z" transform="translate(-141.71 -95.13)"/><path d="M177.52,109.65h-3.71c-.56-3.63-.42-3.78,3.44-3.54Z" transform="translate(-141.71 -95.13)"/><path d="M173,140.83h4.65a14.92,14.92,0,0,1-.83,3.48,2.53,2.53,0,0,1-2.24-.13C173.86,143.47,173.63,142.31,173,140.83Z" transform="translate(-141.71 -95.13)"/></svg>