<svg id="Layer_1" data-name="Layer 1" xmlns="http://www.w3.org/2000/svg" viewBox="0 0 383.28 276.86"><defs><style>.cls-1{fill:#f5f5f5;}</style></defs><path class="cls-1" d="M392.2,203c-3.32,9.41-10,12.79-19.87,12.77q-172.86-.24-345.71-.11c-10.18,0-17.35-6.29-17.65-15.4-.29-8.8,6.28-15.92,15.34-16.57,1.62-.11,3.24-.06,4.87-.06q171.36,0,342.72-.1c9.88,0,16.9,3.12,20.3,12.73Z" transform="translate(-8.92 -61.16)"/><path class="cls-1" d="M392.2,81c-1.73,2.66-3,6-5.33,7.82-2.69,2.1-6.34,3-9.67,4.22-1.23.43-2.72.12-4.09.12q-172.51,0-345,0a28.52,28.52,0,0,1-8.47-.94,15.68,15.68,0,0,1-10.57-17A15.9,15.9,0,0,1,24,61.36c1.62-.09,3.24-.06,4.86-.06q171.39,0,342.76-.14c9.89,0,16.89,2.89,20.59,12.3Z" transform="translate(-8.92 -61.16)"/><path class="cls-1" d="M392.2,325.72c-.44.86-.9,1.7-1.31,2.57-2.71,5.8-7.18,9.11-13.61,9.6-1.74.14-3.49.13-5.23.13Q200.51,338,29,338a36.44,36.44,0,0,1-8.17-.58c-7.6-1.79-12.72-9.53-11.76-17.28a15.94,15.94,0,0,1,15.17-13.95c1.49-.06,3,0,4.48,0q171.92,0,343.82-.12c9.91,0,16.56,3.39,19.68,12.93Z" transform="translate(-8.92 -61.16)"/></svg>