<svg id="Layer_1" data-name="Layer 1" xmlns="http://www.w3.org/2000/svg" viewBox="0 0 95.08 43.65"><defs><style>.cls-1{fill:#f2f2f3;}.cls-2{fill:#f2f2f2;}</style></defs><path class="cls-1" d="M139.46,146h-25a11.39,11.39,0,0,1-10-5.47,21.34,21.34,0,0,1-3.28-12.12,22.41,22.41,0,0,1,3.34-12.47q3.69-5.72,9.9-5.71H132v7.56H115.83q-2.94,0-4.6,3.1a14.35,14.35,0,0,0-1.5,6.88,15.36,15.36,0,0,0,1.56,7.19q1.69,3.28,4.54,3.28l23.63-.15Z" transform="translate(-101.27 -109.55)"/><path class="cls-2" d="M196.34,153.2H188.2c-2.45-9.71-3.09-12.21-3.71-14.71-1.53-5.8-2.86-10.42-4-13.85q-2.46-7.45-3.6-7.3a1.67,1.67,0,0,0-1.07.6,2.12,2.12,0,0,0-.28,1.19v19.66a6.86,6.86,0,0,1-2.81,5.62,9.85,9.85,0,0,1-6.3,2.08,9.94,9.94,0,0,1-9.67-7c-.15-.47-.87-3-2.14-7.62q-1.72-6.27-3-9.81c-1.19-3.22-2.16-4.79-2.9-4.69a1.7,1.7,0,0,0-1,.6,2.11,2.11,0,0,0-.29,1.19V146h-7.91V117.28a6.79,6.79,0,0,1,3-6,11.19,11.19,0,0,1,6.53-1.76q5.34,0,8.47,5.36,2.1,3.57,4,11.57a81.55,81.55,0,0,0,3.08,10.9,2.37,2.37,0,0,0,.83,1.05,1.91,1.91,0,0,0,1.13.39,1,1,0,0,0,.83-.36,1.57,1.57,0,0,0,.31-1.08v-20.1a6.81,6.81,0,0,1,3-6,11.21,11.21,0,0,1,6.53-1.76,8.27,8.27,0,0,1,5.75,2.28,15.55,15.55,0,0,1,4,7.3Z" transform="translate(-101.27 -109.55)"/></svg>