<svg id="Layer_1" data-name="Layer 1" xmlns="http://www.w3.org/2000/svg" viewBox="0 0 100.29 93.97"><defs><style>.cls-1{fill:#f5f5f5;}</style></defs><path class="cls-1" d="M170.8,147.85a40.83,40.83,0,0,1,31.9-15.2c22.33,0,40.5,17.71,40.5,39.48a38.44,38.44,0,0,1-4.27,17.63h8.26a45.91,45.91,0,0,0,3.51-17.63c0-25.9-21.53-47-48-47a48.26,48.26,0,0,0-41.08,22.7Z" transform="translate(-150.41 -125.15)"/><path class="cls-1" d="M235.13,195.76a41.09,41.09,0,0,1-64.86,0h-9a48.48,48.48,0,0,0,82.93,0Z" transform="translate(-150.41 -125.15)"/><path class="cls-1" d="M181.14,189.84H163.65a11.39,11.39,0,0,1-10-5.47,21.42,21.42,0,0,1-3.28-12.12,22.39,22.39,0,0,1,3.34-12.47q3.69-5.72,9.9-5.71h17.49v7.56H165q-2.92,0-4.6,3.1a14.45,14.45,0,0,0-1.49,6.87,15.5,15.5,0,0,0,1.55,7.2c1.13,2.19,2.65,3.28,4.54,3.28h16.17Z" transform="translate(-150.41 -125.15)"/><path class="cls-1" d="M239.5,189.84h-8.14c-.65-2.5-1.28-5-1.91-7.5q-2.28-8.7-4-13.86-2.46-7.44-3.6-7.29a1.64,1.64,0,0,0-1.07.6,2.12,2.12,0,0,0-.28,1.19v19.66a6.89,6.89,0,0,1-2.81,5.62,9.85,9.85,0,0,1-6.3,2.08,9.92,9.92,0,0,1-9.67-7q-.24-.7-2.14-7.62-1.73-6.27-3-9.81c-1.19-3.23-2.15-4.79-2.9-4.69a1.67,1.67,0,0,0-1,.6,2,2,0,0,0-.29,1.19v26.86h-7.91V161.13a6.82,6.82,0,0,1,2.95-6,11.29,11.29,0,0,1,6.54-1.75q5.33,0,8.46,5.36,2.12,3.57,4,11.57a82.16,82.16,0,0,0,3.07,10.9,2.46,2.46,0,0,0,.84,1.05,1.9,1.9,0,0,0,1.13.38,1,1,0,0,0,.83-.35,1.57,1.57,0,0,0,.31-1.08v-20.1a6.83,6.83,0,0,1,3-6,11.28,11.28,0,0,1,6.53-1.75,8.24,8.24,0,0,1,5.74,2.28,15.42,15.42,0,0,1,4.05,7.3Z" transform="translate(-150.41 -125.15)"/><rect class="cls-1" x="85.46" y="57.81" width="8.15" height="6"/></svg>