<svg id="Layer_1" data-name="Layer 1" xmlns="http://www.w3.org/2000/svg" viewBox="0 0 117.68 98.01"><defs><style>.cls-1{fill:#fff;}</style></defs><path class="cls-1" d="M257.62,122.23v66.35c0,3.29,0,3.29-3.22,3.29H149.73a5.23,5.23,0,0,1-1.73-.05c-.52-.19-1.28-.7-1.29-1.09-.11-2.77-.06-5.55-.06-8.58H250.07v-3.68H146.77v-62H261v-3.57H143.34v82.43h8.39q15.57,0,31.15,0c1,0,2.39-.42,2.42,1.3,0,3.47,0,6.94,0,10.69h-8.61V211h51v-3.7h-8.87v-7.82h-3.42v7.72H189.08V195.39H261V122.23ZM250,171.72V123.28h-23.8v48.44Zm-30.9-3H167.3v3.42h51.84Zm0-45.36H167.29v3.12h51.87Zm-29.64,21.37,8.65,9.05,2.72-2.35-11.4-11.93L170.94,159.2l2.64,2.42ZM200,161.8l7-7.35,7,6.92,2.62-2.12L207,149.13,197.76,159Zm5.28-22.53a5.39,5.39,0,0,0,5.29,5.45,5.6,5.6,0,0,0,5.67-5.38,5.44,5.44,0,0,0-5.35-5.37A5.27,5.27,0,0,0,205.26,139.27Zm-44.66-4.93c.62-3.85-.43-4.43-5.47-3.17v3.17Zm-5.87,4.41c.32,1.4.38,3.23.84,3.34a10,10,0,0,0,4.8-.05c.44-.12.37-2.09.54-3.29Zm.33-12.35h5.6v-3.07h-5.6Zm-.27,20.27c.27,1.3.31,3.07.71,3.15a11.49,11.49,0,0,0,4.85,0c.41-.1.41-2,.62-3.13Zm5.86,11.2v-3.15h-5.49v3.15Z" transform="translate(-143.34 -112.94)"/><path d="M257.62,122.23H261v73.16H189.08v11.76h26.31v-7.72h3.42v7.82h8.87V211h-51v-3.58h8.61c0-3.75,0-7.22,0-10.69,0-1.72-1.44-1.29-2.42-1.3q-15.57,0-31.15,0h-8.39V112.94H261v3.57H146.77v62h103.3v3.68H146.65c0,3-.05,5.81.06,8.58,0,.39.77.9,1.29,1.09a5.23,5.23,0,0,0,1.73.05H254.4c3.21,0,3.22,0,3.22-3.29V122.23Z" transform="translate(-143.34 -112.94)"/><path d="M250,171.72h-23.8V123.28H250Zm-20.12-3.41c5.18,0,10.22,0,15.25-.08.44,0,1.24-1,1.24-1.59.07-12.76,0-25.52.07-38.28,0-1.29-.48-1.78-1.75-1.75-2.4,0-4.81,0-7.22,0h-7.59Z" transform="translate(-143.34 -112.94)"/><path d="M219.14,168.68v3.42H167.3v-3.42Z" transform="translate(-143.34 -112.94)"/><path d="M219.16,123.32v3.12H167.29v-3.12Z" transform="translate(-143.34 -112.94)"/><path d="M189.52,144.69l-15.94,16.93-2.64-2.42,18.55-19.74,11.4,11.93-2.72,2.35Z" transform="translate(-143.34 -112.94)"/><path d="M200,161.8,197.76,159l9.26-9.85,9.55,10.12L214,161.37l-7-6.92Z" transform="translate(-143.34 -112.94)"/><path d="M205.26,139.27a5.27,5.27,0,0,1,5.61-5.3,5.44,5.44,0,0,1,5.35,5.37,5.6,5.6,0,0,1-5.67,5.38A5.39,5.39,0,0,1,205.26,139.27Zm7.92-.07c-1.12-.77-1.9-1.7-2.42-1.57-.73.18-1.26,1.14-1.88,1.77.68.55,1.31,1.44,2.05,1.54C211.46,141,212.14,140.05,213.18,139.2Z" transform="translate(-143.34 -112.94)"/><path d="M160.6,134.34h-5.47v-3.17C160.17,129.91,161.22,130.49,160.6,134.34Z" transform="translate(-143.34 -112.94)"/><path d="M154.73,138.75h6.18c-.17,1.2-.1,3.17-.54,3.29a10,10,0,0,1-4.8.05C155.11,142,155.05,140.15,154.73,138.75Z" transform="translate(-143.34 -112.94)"/><path d="M155.06,126.4v-3.07h5.6v3.07Z" transform="translate(-143.34 -112.94)"/><path d="M154.79,146.67H161c-.21,1.18-.21,3-.62,3.13a11.49,11.49,0,0,1-4.85,0C155.1,149.74,155.06,148,154.79,146.67Z" transform="translate(-143.34 -112.94)"/><path d="M160.65,157.87h-5.49v-3.15h5.49Z" transform="translate(-143.34 -112.94)"/><path class="cls-1" d="M229.92,168.31v-41.7h7.59c2.41,0,4.82,0,7.22,0,1.27,0,1.75.46,1.75,1.75,0,12.76,0,25.52-.07,38.28,0,.56-.8,1.58-1.24,1.59C240.14,168.35,235.1,168.31,229.92,168.31Zm3.62-26.65h9.07v-3.38h-9.07Zm0,15.44h9.07v-3.39h-9.07Zm9-23.23v-3.12h-9v3.12Zm.12,12.34h-9.06v3.08h9.06Zm0,15.39h-9.12v3.09h9.12Z" transform="translate(-143.34 -112.94)"/><path class="cls-1" d="M213.18,139.2c-1,.85-1.72,1.81-2.25,1.74-.74-.1-1.37-1-2.05-1.54.62-.63,1.15-1.59,1.88-1.77C211.28,137.5,212.06,138.43,213.18,139.2Z" transform="translate(-143.34 -112.94)"/><path d="M233.54,141.66v-3.38h9.07v3.38Z" transform="translate(-143.34 -112.94)"/><path d="M233.54,157.1v-3.39h9.07v3.39Z" transform="translate(-143.34 -112.94)"/><path d="M242.55,133.87h-9v-3.12h9Z" transform="translate(-143.34 -112.94)"/><path d="M242.67,146.21v3.08h-9.06v-3.08Z" transform="translate(-143.34 -112.94)"/><path d="M242.68,161.6v3.09h-9.12V161.6Z" transform="translate(-143.34 -112.94)"/></svg>