<svg id="Layer_1" data-name="Layer 1" xmlns="http://www.w3.org/2000/svg" viewBox="0 0 383.28 276.86"><defs><style>.cls-1{fill:#f5f5f5;}</style></defs><path class="cls-1" d="M392,202.62c-3.32,9.41-10,12.79-19.87,12.77q-172.86-.24-345.72-.11c-10.17,0-17.35-6.29-17.64-15.4-.29-8.8,6.28-15.92,15.34-16.57,1.61-.11,3.24-.06,4.86-.06q171.36,0,342.72-.1c9.88,0,16.9,3.12,20.31,12.73Z" transform="translate(-8.72 -60.82)"/><path class="cls-1" d="M392,80.61c-1.73,2.66-3,6-5.33,7.82-2.69,2.1-6.35,3-9.68,4.22-1.22.43-2.72.12-4.09.12q-172.5,0-345,0a28.58,28.58,0,0,1-8.48-.94,15.67,15.67,0,0,1-10.56-17A15.89,15.89,0,0,1,23.79,61C25.4,60.93,27,61,28.65,61Q200,61,371.41,60.82c9.89,0,16.89,2.89,20.59,12.3Z" transform="translate(-8.72 -60.82)"/><path class="cls-1" d="M392,325.38c-.44.86-.91,1.7-1.31,2.57-2.71,5.8-7.18,9.11-13.61,9.6-1.74.14-3.49.13-5.23.13q-171.54,0-343.07,0a36.4,36.4,0,0,1-8.17-.58C13,335.29,7.89,327.55,8.84,319.8A15.94,15.94,0,0,1,24,305.85c1.5-.06,3,0,4.49,0q171.92,0,343.81-.12c9.91,0,16.56,3.39,19.69,12.93Z" transform="translate(-8.72 -60.82)"/></svg>