<svg id="Layer_1" data-name="Layer 1" xmlns="http://www.w3.org/2000/svg" viewBox="0 0 107.1 107.5"><defs><style>.cls-1{fill:#fff;}</style></defs><path class="cls-1" d="M203.93,151c-.52,2-.5,4.37-1.68,5.78-3,3.61-6.57,6.74-9.86,10.11-1.32,1.36-2.35,1.48-3.76,0-4.68-4.89-9.38-9.77-14.26-14.45a5.81,5.81,0,0,1-2-4.6c0-3.75-1.44-6.9-4.85-8.95-5.7-3.43-11.34-7-17.08-10.33a2.59,2.59,0,0,0-2.26.55,93.11,93.11,0,0,0-6.58,6.6,2.77,2.77,0,0,0-.21,2.55c2.8,5,5.89,9.8,8.62,14.81,2.59,4.77,6.3,7.19,11.77,6.93a3.1,3.1,0,0,1,2,.94c5.27,5.19,10.46,10.46,15.76,15.63,1.15,1.12,1.21,1.78,0,2.91-3.39,3.27-6.74,6.59-10,10a5.07,5.07,0,0,1-3.82,1.53c-3.67.22-7.62,0-10.92,1.31-9.22,3.67-14.75,11.82-14.15,22.37.09,1.68,1,3.31,1.54,5a32.16,32.16,0,0,0,4.1-2.74c2.14-1.92,4-4.11,6.13-6.08,2.63-2.45,3.51-2.44,6.15,0,2.21,2.05,4.33,4.2,6.49,6.3a4.33,4.33,0,0,1-.13,6.64c-2.71,2.47-5.15,5.22-7.76,7.79-1.09,1.06-1.35,2.47,0,2.91a16.18,16.18,0,0,0,6.79.94c4.51-.56,8.89-1.76,12.59-4.74a21.9,21.9,0,0,0,8.45-20.1,4.58,4.58,0,0,1,1.4-4.36c.92-.88,1.82-1.79,2.81-2.6a3.5,3.5,0,0,1,1.82-.91c6.91-.22,6.91-.2,12,4.66q.88.84,1.74,1.71c7.51,7.53,15,15.1,22.54,22.6,3.64,3.61,9.53,4.74,13.53,2.71a12,12,0,0,0,3.16-19.56q-12.66-12.6-25.36-25.17c-2.29-2.25-4.39-4.44-3.36-8.06a7.07,7.07,0,0,0-.11-2.23c-.11-1.65,4.3-7.06,5.9-7.21a2,2,0,0,1,.73.1c7,1.77,13.11-.57,18.23-5.05,6.12-5.34,8.89-12.21,7.15-20.46a18.77,18.77,0,0,0-1-2.72,13.05,13.05,0,0,0-3,1.57,61.58,61.58,0,0,0-6.8,6.71c-2.24,2.76-5.16,2.08-7.09,0-1.78-1.91-3.74-3.65-5.54-5.54-3-3.16-2.89-4.48.17-7.48,2.53-2.48,5.05-5,7.49-7.55,1.09-1.14,1.43-2.06-.68-2.83-4.4-1.61-8.78-1-12.81.51C209.42,132.7,203,140.69,203.93,151Z" transform="translate(-140.74 -128.03)"/><path d="M203.93,151c-.91-10.31,5.49-18.3,14.07-21.51,4-1.51,8.41-2.12,12.81-.51,2.11.77,1.77,1.69.68,2.83-2.44,2.57-5,5.07-7.49,7.55-3.06,3-3.18,4.32-.17,7.48,1.8,1.89,3.76,3.63,5.54,5.54,1.93,2.05,4.85,2.73,7.09,0a61.58,61.58,0,0,1,6.8-6.71,13.05,13.05,0,0,1,3-1.57,18.77,18.77,0,0,1,1,2.72c1.74,8.25-1,15.12-7.15,20.46-5.12,4.48-11.2,6.82-18.23,5.05a2,2,0,0,0-.73-.1c-1.6.15-6,5.56-5.9,7.21a7.07,7.07,0,0,1,.11,2.23c-1,3.62,1.07,5.81,3.36,8.06q12.72,12.54,25.36,25.17A12,12,0,0,1,241,234.43c-4,2-9.89.9-13.53-2.71-7.55-7.5-15-15.07-22.54-22.6q-.85-.87-1.74-1.71c-5.07-4.86-5.07-4.88-12-4.66a3.5,3.5,0,0,0-1.82.91c-1,.81-1.89,1.72-2.81,2.6a4.58,4.58,0,0,0-1.4,4.36,21.9,21.9,0,0,1-8.45,20.1c-3.7,3-8.08,4.18-12.59,4.74a16.18,16.18,0,0,1-6.79-.94c-1.34-.44-1.08-1.85,0-2.91,2.61-2.57,5.05-5.32,7.76-7.79a4.33,4.33,0,0,0,.13-6.64c-2.16-2.1-4.28-4.25-6.49-6.3-2.64-2.44-3.52-2.45-6.15,0-2.1,2-4,4.16-6.13,6.08a32.16,32.16,0,0,1-4.1,2.74c-.54-1.66-1.45-3.29-1.54-5-.6-10.55,4.93-18.7,14.15-22.37,3.3-1.3,7.25-1.09,10.92-1.31a5.07,5.07,0,0,0,3.82-1.53c3.22-3.44,6.57-6.76,10-10,1.18-1.13,1.12-1.79,0-2.91-5.3-5.17-10.49-10.44-15.76-15.63a3.1,3.1,0,0,0-2-.94c-5.47.26-9.18-2.16-11.77-6.93-2.73-5-5.82-9.83-8.62-14.81a2.77,2.77,0,0,1,.21-2.55,93.11,93.11,0,0,1,6.58-6.6,2.59,2.59,0,0,1,2.26-.55c5.74,3.37,11.38,6.9,17.08,10.33,3.41,2,4.8,5.2,4.85,8.95a5.81,5.81,0,0,0,2,4.6c4.88,4.68,9.58,9.56,14.26,14.45,1.41,1.47,2.44,1.35,3.76,0,3.29-3.37,6.86-6.5,9.86-10.11C203.43,155.37,203.41,153,203.93,151Zm24-18.7-.8-.94a17.35,17.35,0,0,0-13,3.55c-6.42,4.85-8.7,11.33-7.69,19.09a5.32,5.32,0,0,1-1.95,5c-3.47,3.3-6.77,6.78-10.22,10.1-1.36,1.3-1.16,2.26.12,3.43,1.59,1.45,3.06,3,4.6,4.52,2.58,2.51,2.54,2.44,5.34.18,2.06-1.66,4.24-3.07,7.1-1.47.45.26,1.56-.12,2-.56,1.72-1.54,3.25-3.28,5-4.84.6-.55,1.67-1.29,2.21-1.09,4.68,1.76,9.05.57,13.32-1.25,7-3,11.85-11.87,10.93-19.19A12.22,12.22,0,0,0,243,150c-1.8,1.68-3.68,3.31-5.3,5.15a6.77,6.77,0,0,1-9.42.06c-2.33-2.41-4.62-4.89-7.16-7.07s-2.65-8,.1-10.12C223.52,136.23,225.67,134.21,227.89,132.3Zm-84,82.85c2.47-2.37,4.6-4.48,6.79-6.53a6.92,6.92,0,0,1,9.87,0c2.32,2.19,4.64,4.4,6.84,6.71,3.11,3.25,3,7.14-.16,10.36-1.61,1.65-3.28,3.25-4.85,4.93a7.09,7.09,0,0,0-.9,1.73l.5.59c2.4-.44,4.95-.5,7.17-1.38,9.26-3.64,14.41-11.35,13.06-20.93-.49-3.44.84-4.93,2.75-6.79a19.22,19.22,0,0,1,1.66-1.71c1.49-1.13,2.43-2.17,1.13-4.21-.47-.74-.1-2.29.34-3.27a17.67,17.67,0,0,1,2.65-4c1-1.16,1.16-1.89-.13-3a71.43,71.43,0,0,1-5.51-5.63c-1.26-1.39-2.29-1.42-3.62,0-3.31,3.45-6.8,6.74-10.09,10.21A5.78,5.78,0,0,1,166.6,194a43.19,43.19,0,0,0-10,.89C149.49,196.54,142.29,206.19,143.88,215.15Zm68.68-27.07-11.82,12.14c9.79,10,19.53,20.05,29.51,29.89a9.37,9.37,0,0,0,6.08,2.38,8.76,8.76,0,0,0,7.87-5.24,7.79,7.79,0,0,0-1.6-9.59C232.69,207.8,222.69,198,212.56,188.08Zm-51.9-30.71a20.7,20.7,0,0,0,4.07-1.36c2.77-1.58,4.66-3.91,4.83-7.26a7.78,7.78,0,0,0-4.15-7.83c-3.63-2-7.16-4.25-10.68-6.48-5-3.18-5-3.2-9,1-1.19,1.25-1.54,2.24-.4,4,2.37,3.6,4.27,7.51,6.55,11.17C153.88,153.86,155.8,157.44,160.66,157.37ZM199.8,182.2c-.84-1-1.24-1.58-1.73-2.07-8.14-8.09-16.34-16.1-24.37-24.29-1.71-1.74-2.74-2.67-4.22,0a5.59,5.59,0,0,1-1.8,1.6c-1.56,1.05-1.34,1.94-.08,3.18,8.16,8.06,16.34,16.12,24.34,24.35,1.89,2,3,2.13,4.63,0A19.13,19.13,0,0,1,199.8,182.2Zm-5.9,18.42a13.12,13.12,0,0,0,2.74-1.48c5-4.95,10-9.95,15-14.95a3.51,3.51,0,0,0,.13-4.9,3.27,3.27,0,0,0-5.15-.3c-5.1,5-10.17,10-15.1,15.2a4,4,0,0,0-.77,3.49C191.28,198.86,192.76,199.62,193.9,200.62Z" transform="translate(-140.74 -128.03)"/><path class="cls-1" d="M227.89,132.3c-2.22,1.91-4.37,3.93-6.69,5.73-2.75,2.12-2.68,7.92-.1,10.12s4.83,4.66,7.16,7.07a6.77,6.77,0,0,0,9.42-.06c1.62-1.84,3.5-3.47,5.3-5.15a12.22,12.22,0,0,1,1.91-1.2c.92,7.32-4,16.23-10.93,19.19-4.27,1.82-8.64,3-13.32,1.25-.54-.2-1.61.54-2.21,1.09-1.7,1.56-3.23,3.3-5,4.84-.49.44-1.6.82-2,.56-2.86-1.6-5-.19-7.1,1.47-2.8,2.26-2.76,2.33-5.34-.18-1.54-1.5-3-3.07-4.6-4.52-1.28-1.17-1.48-2.13-.12-3.43,3.45-3.32,6.75-6.8,10.22-10.1a5.32,5.32,0,0,0,1.95-5c-1-7.76,1.27-14.24,7.69-19.09a17.35,17.35,0,0,1,13-3.55Z" transform="translate(-140.74 -128.03)"/><path class="cls-1" d="M143.88,215.15c-1.59-9,5.61-18.61,12.75-20.25a43.19,43.19,0,0,1,10-.89,5.78,5.78,0,0,0,4.78-1.87c3.29-3.47,6.78-6.76,10.09-10.21,1.33-1.38,2.36-1.35,3.62,0a71.43,71.43,0,0,0,5.51,5.63c1.29,1.13,1.09,1.86.13,3a17.67,17.67,0,0,0-2.65,4c-.44,1-.81,2.53-.34,3.27,1.3,2,.36,3.08-1.13,4.21a19.22,19.22,0,0,0-1.66,1.71c-1.91,1.86-3.24,3.35-2.75,6.79,1.35,9.58-3.8,17.29-13.06,20.93-2.22.88-4.77.94-7.17,1.38l-.5-.59a7.09,7.09,0,0,1,.9-1.73c1.57-1.68,3.24-3.28,4.85-4.93,3.16-3.22,3.27-7.11.16-10.36-2.2-2.31-4.52-4.52-6.84-6.71a6.92,6.92,0,0,0-9.87,0C148.48,210.67,146.35,212.78,143.88,215.15Z" transform="translate(-140.74 -128.03)"/><path class="cls-1" d="M212.56,188.08c10.13,10,20.13,19.72,30,29.58a7.79,7.79,0,0,1,1.6,9.59,8.76,8.76,0,0,1-7.87,5.24,9.37,9.37,0,0,1-6.08-2.38c-10-9.84-19.72-19.91-29.51-29.89Zm1.3,6.32c-.52.36-1.29.63-1.33,1a2.26,2.26,0,0,0,.65,1.63q12,12.1,24.1,24.11c.51.51,1.7.33,2.58.47-.18-.75-.12-1.75-.59-2.22q-11.85-12-23.83-23.84A11.07,11.07,0,0,0,213.86,194.4Zm-6.11,4.91a3.68,3.68,0,0,0-.41,1.39,4.06,4.06,0,0,0,.7,2.21c3.73,3.91,7.53,7.76,11.36,11.58q6.25,6.24,12.64,12.36c.44.42,1.32.4,2,.58a14.57,14.57,0,0,0,0-2.38c0-.3-.54-.53-.82-.81q-11.55-11.6-23.11-23.18A24.43,24.43,0,0,0,207.75,199.31Z" transform="translate(-140.74 -128.03)"/><path class="cls-1" d="M160.66,157.37c-4.86.07-6.78-3.51-8.81-6.77-2.28-3.66-4.18-7.57-6.55-11.17-1.14-1.71-.79-2.7.4-4,4-4.24,4-4.22,9-1,3.52,2.23,7.05,4.45,10.68,6.48a7.78,7.78,0,0,1,4.15,7.83c-.17,3.35-2.06,5.68-4.83,7.26A20.7,20.7,0,0,1,160.66,157.37Z" transform="translate(-140.74 -128.03)"/><path class="cls-1" d="M199.8,182.2a19.13,19.13,0,0,0-3.23,2.73c-1.65,2.17-2.74,2-4.63,0-8-8.23-16.18-16.29-24.34-24.35-1.26-1.24-1.48-2.13.08-3.18a5.59,5.59,0,0,0,1.8-1.6c1.48-2.67,2.51-1.74,4.22,0,8,8.19,16.23,16.2,24.37,24.29C198.56,180.62,199,181.19,199.8,182.2Z" transform="translate(-140.74 -128.03)"/><path class="cls-1" d="M193.9,200.62c-1.14-1-2.62-1.76-3.14-2.94a4,4,0,0,1,.77-3.49c4.93-5.17,10-10.2,15.1-15.2a3.27,3.27,0,0,1,5.15.3,3.51,3.51,0,0,1-.13,4.9c-5,5-10,10-15,14.95A13.12,13.12,0,0,1,193.9,200.62Z" transform="translate(-140.74 -128.03)"/><path d="M213.86,194.4a11.07,11.07,0,0,1,1.58,1.14q12,11.88,23.83,23.84c.47.47.41,1.47.59,2.22-.88-.14-2.07,0-2.58-.47q-12.14-12-24.1-24.11a2.26,2.26,0,0,1-.65-1.63C212.57,195,213.34,194.76,213.86,194.4Z" transform="translate(-140.74 -128.03)"/><path d="M207.75,199.31a24.43,24.43,0,0,1,2.39,1.75q11.56,11.56,23.11,23.18c.28.28.79.51.82.81a14.57,14.57,0,0,1,0,2.38c-.67-.18-1.55-.16-2-.58q-6.39-6.12-12.64-12.36c-3.83-3.82-7.63-7.67-11.36-11.58a4.06,4.06,0,0,1-.7-2.21A3.68,3.68,0,0,1,207.75,199.31Z" transform="translate(-140.74 -128.03)"/></svg>