<svg id="Layer_1" data-name="Layer 1" xmlns="http://www.w3.org/2000/svg" viewBox="0 0 107.37 107.47"><path d="M150.42,231l-8.27,2.14c1.1-4.42,2.42-8.49,3.08-12.66,1.08-6.87,4.52-12,9.54-16.74,11-10.38,21.45-21.28,32.15-31.94a19.54,19.54,0,0,1,2.31-1.72l-7.1-6.5-3.8,3.61-2.06-2.82,3.49-3.68L174,155.07l-5.23,6.68-3.23-3.07,6.44-5.93-6-5.58-3.88,3.69L159.34,148l4.38-3.47-6.41-5.84-16.89,16.86L168,183.06l-3.2,2.23L135,155.56l22.45-22.31,34,33.89c.85-.8,1.51-1.39,2.14-2,6.87-6.86,13.71-13.75,20.61-20.58,3.72-3.68,7.89-3.64,11.61,0,1.71,1.68,3.44,3.36,5.09,5.11,3.51,3.72,3.57,7.5,0,11.2-3.37,3.54-6.89,6.93-10.35,10.39l-30.46,30.46c-.63.63-1.22,1.3-1.73,1.84l27.75,27.7-3.54,2.39L185.17,206.1c-1.2,1.41-2.2,2.72-3.35,3.88-5,5-10,9.93-14.92,15a11,11,0,0,1-6.09,3.47c-2.1.41-4.17,1-6.55,1.6l-.87-3.2c.49-.26.76-.51,1.06-.54,5.81-.68,10-3.81,14.05-7.94,17.79-18.13,35.84-36,53.82-53.94a23.57,23.57,0,0,1,2.68-1.93l-4.88-4.42-57,56.91-2.49-2.88,56.86-56.78-2.12-2.62L218,150.1l8.5,9.49c4-2.6,4.28-4.91,1.35-7.89-1.51-1.54-3-3.08-4.58-4.58-2.38-2.31-4.28-2.28-6.64.09Q198,165.85,179.31,184.53q-12.5,12.5-25,25a18.47,18.47,0,0,1-2.69,1.76l9,8.35-3.31,3.23L151,215.27l-.72.38L147.13,228C150.32,226.86,149.85,229.21,150.42,231Z" transform="translate(-135.04 -133.25)"/><path d="M211.31,187.18l31.1,31-22.55,22.49-1.93-1.82,20.15-20-6.9-6.33-3.76,3.58-2.23-2.63,3.67-3.95-5.49-5.15L217,210.26l-2.15-2.72,5.64-6.27L215.14,196l-4,3.68-2.32-2.51,3.7-3.93-3.8-4Z" transform="translate(-135.04 -133.25)"/></svg>