<?xml version="1.0" encoding="UTF-8" standalone="no"?>
<svg
   xmlns:dc="http://purl.org/dc/elements/1.1/"
   xmlns:cc="http://creativecommons.org/ns#"
   xmlns:rdf="http://www.w3.org/1999/02/22-rdf-syntax-ns#"
   xmlns:svg="http://www.w3.org/2000/svg"
   xmlns="http://www.w3.org/2000/svg"
   version="1.1"
   id="svg3687"
   viewBox="0 0 566.07185 116.40212"
   height="32.851265mm"
   width="159.75806mm">
  <defs
     id="defs3689">
    <clipPath
       id="clipPath3499"
       clipPathUnits="userSpaceOnUse">
      <path
         id="path3501"
         d="M 0,792 612,792 612,0 0,0 0,792 Z" />
    </clipPath>
  </defs>
  <metadata
     id="metadata3692">
    <rdf:RDF>
      <cc:Work
         rdf:about="">
        <dc:format>image/svg+xml</dc:format>
        <dc:type
           rdf:resource="http://purl.org/dc/dcmitype/StillImage" />
        <dc:title></dc:title>
      </cc:Work>
    </rdf:RDF>
  </metadata>
  <g
     transform="translate(-68.392618,-91.30405)"
     id="layer1">
    <g
       transform="matrix(1.25,0,0,-1.25,-28.420757,1011.2773)"
       id="g3495">
      <g
         clip-path="url(#clipPath3499)"
         id="g3497">
        <g
           transform="translate(137.7471,723.8472)"
           id="g3503">
          <path
             id="path3505"
             style="fill:#FFF;fill-opacity:1;fill-rule:nonzero;stroke:none"
             d="m 0,0 -13.754,-26.521 9.303,0.036 c 0.775,0.002 1.325,0.111 1.654,0.331 0.326,0.218 0.62,0.574 0.88,1.072 l 12.353,23.819 c 0.45,0.867 0.114,1.302 -1.004,1.297 L 0,0 Z M 24.35,12.064 C 28.052,12.076 30.441,11.16 31.525,9.678 32.604,8.196 32.5,6.213 31.214,3.734 L 14.468,-28.552 c -0.676,-1.304 -1.489,-2.501 -2.44,-3.586 -0.951,-1.089 -2.152,-2.035 -3.603,-2.845 -1.453,-0.811 -3.162,-1.451 -5.126,-1.925 -1.966,-0.471 -4.238,-0.71 -6.822,-0.717 l -16.022,-0.059 -8.753,-16.874 -18.574,0 34.553,66.622 36.669,0 z" />
        </g>
        <g
           transform="translate(183.2197,735.9116)"
           id="g3507">
          <path
             id="path3509"
             style="fill:#FFF;fill-opacity:1;fill-rule:nonzero;stroke:none"
             d="m 0,0 18.946,0.067 -26.38,-51.87 31.748,0.111 -11.106,-14.93 -47.339,0 L 0,0 Z" />
        </g>
        <g
           transform="translate(234.0098,688.0659)"
           id="g3511">
          <path
             id="path3513"
             style="fill:#FFF;fill-opacity:1;fill-rule:nonzero;stroke:none"
             d="M 0,0 8.52,0.031 16.109,23.549 0,0 Z m -7.309,-10.536 -5.779,-8.247 -18.515,0.007 49.854,66.369 19.709,0.072 -16.587,-66.325 -18.567,-0.069 2.474,8.235 -12.589,-0.042 z" />
        </g>
        <g
           transform="translate(283.7622,669.4048)"
           id="g3515">
          <path
             id="path3517"
             style="fill:#FFF;fill-opacity:1;fill-rule:nonzero;stroke:none"
             d="m 0,0 -19.454,-0.066 8.437,16.847 8.229,49.477 17.979,0.064 L 7.773,35.036 31.85,66.38 50.925,66.448 8.44,16.85 0,0 Z" />
        </g>
        <g
           transform="translate(343.2549,735.6592)"
           id="g3519">
          <path
             id="path3521"
             style="fill:#FFF;fill-opacity:1;fill-rule:nonzero;stroke:none"
             d="m 0,0 21.173,0 -46.626,-77.252 204.213,0 -10.39,-15.52 -224.347,-0.03 L 0,0 Z" />
        </g>
        <g
           transform="translate(380.9932,735.6953)"
           id="g3523">
          <path
             id="path3525"
             style="fill:#FFF;fill-opacity:1;fill-rule:nonzero;stroke:none"
             d="m 0,0 21.048,0.075 -37.917,-66.481 -22.104,0 L 0,0 Z" />
        </g>
        <g
           transform="translate(484.6182,735.9116)"
           id="g3527">
          <path
             id="path3529"
             style="fill:#FFF;fill-opacity:1;fill-rule:nonzero;stroke:none"
             d="m 0,0 45.69,0 -7.255,-12.455 -26.706,-0.094 -9.013,-15.753 15.261,0.054 -6.551,-11.45 -15.264,-0.053 -8.278,-14.471 27.045,0.097 L 7.905,-66.622 -38.14,-66.653 0,0 Z" />
        </g>
        <g
           transform="translate(77.4507,642.8569)"
           id="g3531">
          <path
             id="path3533"
             style="fill:#6FA333;fill-opacity:1;fill-rule:nonzero;stroke:none"
             d="m 0,0 8.069,15.55 201.664,0 L 200.418,0.081 0,0 Z" />
        </g>
        <g
           transform="translate(417.0146,735.9116)"
           id="g3535">
          <path
             id="path3537"
             style="fill:#FFF;fill-opacity:1;fill-rule:nonzero;stroke:none"
             d="M 0,0 24.262,0 17.875,-31.342 35.608,0 l 19.424,0 -38,-66.622 -19.382,0.054 7.419,40.511 -22.639,-40.565 -20.429,0 L 0,0 Z" />
        </g>
      </g>
    </g>
  </g>
</svg>
